<svg width="64" height="64" viewBox="0 0 64 64" fill="none" xmlns="http://www.w3.org/2000/svg">
<g clip-path="url(#clip0_2117_287)">
<rect width="64" height="64" fill="white"/>
<rect width="64" height="64" fill="url(#paint0_radial_2117_287)"/>
<path d="M15.0073 18.36L11.3273 17.68L11.5273 15.52H26.4873L26.2873 17.68L23.0073 18.28L22.1673 40.12C22.114 41.3733 21.9273 42.5333 21.6073 43.6C21.314 44.6667 20.8073 45.7067 20.0873 46.72C19.3673 47.7333 18.3673 48.7733 17.0873 49.84C15.834 50.9333 14.2073 52.1333 12.2073 53.44L10.6073 51.44C11.3007 50.6133 11.8607 49.84 12.2873 49.12C12.714 48.4 13.0473 47.6267 13.2873 46.8C13.5273 46 13.7007 45.0667 13.8073 44C13.914 42.9333 14.0073 41.68 14.0873 40.24L15.0073 18.36ZM41.1436 28.64C42.3436 28.5333 43.3036 28.2267 44.0236 27.72C44.7703 27.1867 45.3169 26.4667 45.6636 25.56C46.0369 24.6533 46.2236 23.6 46.2236 22.4C46.2236 21.3333 46.0503 20.48 45.7036 19.84C45.3569 19.1733 44.8236 18.6933 44.1036 18.4C43.3836 18.08 42.4369 17.92 41.2636 17.92H40.4236L39.5436 41.24L42.8636 41.76L42.6636 44H27.9836L28.1436 41.76L31.5036 41.2L32.5036 18.28L29.1836 17.68L29.3836 15.52H43.7436C46.1169 15.52 48.0903 15.76 49.6636 16.24C51.2636 16.72 52.4636 17.4667 53.2636 18.48C54.0636 19.4667 54.4636 20.7467 54.4636 22.32C54.4636 23.6267 54.1036 24.8 53.3836 25.84C52.6636 26.88 51.5969 27.7333 50.1836 28.4C48.7703 29.04 47.0103 29.4667 44.9036 29.68V29.84C46.1303 29.9733 47.1303 30.2133 47.9036 30.56C48.7036 30.88 49.3569 31.3067 49.8636 31.84C50.3703 32.3467 50.7969 32.9867 51.1436 33.76L53.1836 38.48C53.4503 39.04 53.7036 39.4933 53.9436 39.84C54.2103 40.1867 54.4769 40.4267 54.7436 40.56C55.0369 40.6933 55.3569 40.76 55.7036 40.76C56.0769 40.76 56.4103 40.72 56.7036 40.64C57.0236 40.5333 57.3836 40.3733 57.7836 40.16L58.4236 42.2C57.9703 42.6 57.3836 42.9867 56.6636 43.36C55.9436 43.7333 55.1836 44.0267 54.3836 44.24C53.5836 44.4533 52.7969 44.56 52.0236 44.56C50.8503 44.56 49.8236 44.4133 48.9436 44.12C48.0903 43.8267 47.3569 43.3333 46.7436 42.64C46.1303 41.92 45.6236 40.9733 45.2236 39.8L43.5836 34.88C43.2903 33.9733 43.0236 33.2533 42.7836 32.72C42.5436 32.16 42.2903 31.7467 42.0236 31.48C41.7569 31.1867 41.4236 30.9867 41.0236 30.88L41.1436 28.64Z" fill="#004B7F"/>
</g>
<defs>
<radialGradient id="paint0_radial_2117_287" cx="0" cy="0" r="1" gradientUnits="userSpaceOnUse" gradientTransform="scale(64)">
<stop stop-color="#AFC676" stop-opacity="0.2"/>
<stop offset="1" stop-color="#F9F871" stop-opacity="0.2"/>
</radialGradient>
<clipPath id="clip0_2117_287">
<rect width="64" height="64" fill="white"/>
</clipPath>
</defs>
</svg>
